<svg xmlns="http://www.w3.org/2000/svg" xmlns:xlink="http://www.w3.org/1999/xlink" viewBox="0,0,256,256" width="96px" height="96px" fill-rule="evenodd"><g fill="#a6a5a5" fill-rule="evenodd" stroke="none" stroke-width="1" stroke-linecap="butt" stroke-linejoin="miter" stroke-miterlimit="10" stroke-dasharray="" stroke-dashoffset="0" font-family="none" font-weight="none" font-size="none" text-anchor="none" style="mix-blend-mode: normal"><g transform="scale(5.33333,5.33333)"><path d="M26.386,24.141c0.623,-0.044 1.639,-0.755 2.026,-1.186c-0.152,0.517 -0.152,2.156 0,2.675c-0.431,-0.626 -1.402,-1.381 -2.026,-1.489M22.848,18.943c0.776,0 1.401,0.755 1.401,1.618c0,0.861 -0.625,1.619 -1.401,1.619h-2.678v-3.237l2.678,0zM22.848,26.211c0.776,0 1.401,0.756 1.401,1.619c0,0.908 -0.625,1.661 -1.401,1.661h-2.678v-3.279l2.678,-0.001zM38.206,34.086c5.393,0 9.794,-4.487 9.794,-9.945c0,-5.544 -4.401,-9.836 -9.794,-9.836c-5.457,0 -8.219,3.968 -8.886,5.587c0,-2.395 -2.396,-5.263 -5.179,-5.263h-7.995c-0.552,0 -1,0.448 -1,1v17.371c0,0.552 0.448,1 1,1h7.369c3.409,0 5.805,-2.914 5.805,-5.459c0.755,1.575 3.429,5.545 8.886,5.545M13,34h-3.195c-0.552,0 -1,-0.448 -1,-1v-6.508h-3.41v6.508c0,0.552 -0.448,1 -1,1h-3.395c-0.552,0 -1,-0.448 -1,-1v-17.372c0,-0.552 0.448,-1 1,-1h3.394c0.552,0 1,0.448 1,1v6.225h3.41v-6.225c0,-0.552 0.448,-1 1,-1h3.196c0.552,0 1,0.448 1,1v17.372c0,0.552 -0.448,1 -1,1zM38.206,30.082c-3.264,0 -5.919,-2.666 -5.919,-5.941c0,-3.263 2.655,-5.918 5.919,-5.918c3.263,0 5.918,2.655 5.918,5.918c0,3.276 -2.655,5.941 -5.918,5.941zM38.206,20.223c-2.161,0 -3.919,1.758 -3.919,3.918c0,2.173 1.758,3.941 3.919,3.941c2.16,0 3.918,-1.768 3.918,-3.941c0,-2.161 -1.758,-3.918 -3.918,-3.918z"></path></g></g></svg>