<svg xmlns="http://www.w3.org/2000/svg" xmlns:xlink="http://www.w3.org/1999/xlink" viewBox="0,0,256,256" width="50px" height="50px" fill-rule="nonzero"><g fill="#aaa7a7" fill-rule="nonzero" stroke="none" stroke-width="1" stroke-linecap="butt" stroke-linejoin="miter" stroke-miterlimit="10" stroke-dasharray="" stroke-dashoffset="0" font-family="none" font-weight="none" font-size="none" text-anchor="none" style="mix-blend-mode: normal"><g transform="scale(5.12,5.12)"><path d="M5,5v40h40v-40zM7,7h36v36h-36zM26.63281,9.98828c0,0 -0.01353,6.52122 -0.01953,9.44922c-0.001,0.123 -0.00042,0.24814 0.01758,0.36914c0.009,0.057 0.0477,0.1312 0.0957,0.1582c0.171,0.097 0.13916,0.21827 0.03516,0.32227c-0.157,0.156 -0.15539,0.33911 -0.15039,0.53711c0.011,0.449 0.00672,0.89866 0.01172,1.34766c0,0.017 0.03241,0.03245 0.06641,0.06445c0.039,-0.065 0.07242,-0.11778 0.10742,-0.17578c0.08,0.198 0.08367,0.19877 0.51367,0.13477c0.014,-0.209 0.02797,-0.42353 0.04297,-0.64453h0.80078c0.02,0.134 0.03664,0.24195 0.05664,0.37695c0.311,-0.359 0.98609,-0.59409 1.37109,-0.49609c0.022,0.126 0.0645,0.25481 0.0625,0.38281c-0.005,0.414 -0.01247,0.41306 0.39453,0.41406c0.035,0 0.07242,0.00191 0.10742,0.00391c0.143,0.007 0.23333,-0.02712 0.23633,-0.20312c0.001,-0.062 0.10816,-0.17783 0.16016,-0.17383c0.267,0.02 0.53083,0.07133 0.79883,0.11133v-0.5293c0.067,-0.018 0.12998,-0.03369 0.20898,-0.05469c-0.029,-0.08 -0.05103,-0.14347 -0.08203,-0.23047c0.307,-0.113 0.19458,0.16581 0.26758,0.25781h0.41211v-0.2793c0.001,-0.42 0.01541,-0.46163 0.44141,-0.51562c0.169,-0.022 0.36144,0.05295 0.52344,0.12695c0.056,0.025 0.04713,0.1843 0.07813,0.2793c0.02,0.061 0.0608,0.11487 0.0918,0.17188l0.08398,-0.01953c0,-0.356 0.00391,-1.36133 0.00391,-1.36133l-3.46094,0.03516v-2.16602l3.24023,0.01172l0.01367,-2.67773l-3.23633,-0.0293c0,0 -0.01758,-1.86058 -0.01758,-2.26758h0.33984c0.936,0 1.87164,-0.00509 2.80664,0.00391c0.195,0.002 0.26277,-0.05291 0.25977,-0.25391c-0.011,-0.732 -0.014,-1.46331 0,-2.19531c0.004,-0.232 -0.08197,-0.27944 -0.29297,-0.27344c-0.706,0.02 -1.41214,0.0303 -2.11914,0.0293c-1.209,-0.003 -4.27148,-0.04102 -4.27148,-0.04102zM34.23633,9.99219c0,0 0.00872,7.47311 0.01172,11.03711c0,0.203 -0.00124,0.40542 0.00977,0.60742c0.009,0.184 0.05995,0.36678 0.00195,0.55078h0.67969c-0.159,-0.55 0.13375,-0.75581 0.84375,-0.63281c0.013,0.119 0.02606,0.24128 0.03906,0.36328c0.021,0.005 0.0415,0.01063 0.0625,0.01563c0.035,-0.09 0.07042,-0.18044 0.10742,-0.27344c0.078,0 0.19728,0.03614 0.23828,-0.00586c0.287,-0.289 0.62886,-0.32358 1.00586,-0.26758c0,0.127 -0.01814,0.24356 0.00586,0.35156c0.022,0.101 0.08858,0.19083 0.14258,0.29883c-0.022,0.029 -0.05956,0.08358 -0.10156,0.14258c0.535,0.12 0.62227,0.07702 0.69727,-0.33398c0.316,0.128 0.69428,-0.10928 0.98828,0.26172v-0.61719c0.055,-0.048 0.12992,-0.08834 0.16992,-0.15234c0.04,-0.063 0.0425,-0.14866 0.0625,-0.22266c0.021,0.002 0.0415,0.00386 0.0625,0.00586c0.04,0.1 0.08,0.19855 0.125,0.31055c0.125,-0.018 0.24414,-0.03473 0.36914,-0.05273c0,-0.197 -0.06238,-0.4082 0.01563,-0.5332c0.079,-0.127 0.29208,-0.21342 0.45508,-0.23242c0.163,-0.019 0.37414,0.02305 0.49414,0.12305c0.099,0.083 0.09572,0.28941 0.13672,0.44141c0.024,0.006 0.04722,0.01067 0.07422,0.01367c0.02,-0.066 0.05559,-0.13027 0.05859,-0.19727c0.013,-0.273 0.00977,-1.15625 0.00977,-1.15625l-3.47461,0.02148v-2.17187l3.23438,0.00195l-0.01953,-2.71484c0,0 -2.04141,-0.00219 -2.94141,0.00781c-0.205,0.002 -0.27344,0.01367 -0.27344,0.01367l-0.00195,-2.28516c0,0 0.05369,-0.00595 0.30469,-0.00195c0.945,0.015 3.04297,0.01172 3.04297,0.01172l0.02148,-2.7207zM17.02344,10.00586c-0.179,-0.001 -0.23061,0.06542 -0.22461,0.23242c0.009,0.255 0.00195,0.51158 0.00195,0.76758c0,3.709 -0.00209,7.416 0.00391,11.125c0,0.083 0.08391,0.167 0.12891,0.25c0.045,-0.076 0.10486,-0.14847 0.13086,-0.23047c0.068,-0.218 -0.1083,-0.51648 0.2207,-0.64648c-0.031,-0.307 0.19752,-0.22056 0.35352,-0.22656c0.211,-0.008 0.42277,-0.00495 0.63477,-0.00195c0.386,0.006 0.38781,-0.06263 0.38281,0.35938c0,0.014 0.0192,0.02788 0.0332,0.04688c0.203,0.016 0.41,0.03183 0.625,0.04883v0.38477h0.49805c0.1,0.113 0.16248,0.18459 0.27148,0.30859c0,-1.633 -0.05639,-4.90316 -0.02539,-4.91016c0.273,0.404 0.67055,0.97186 0.93555,1.38086c0.447,0.689 0.88203,1.38527 1.33203,2.07227c0.048,0.073 0.16405,0.10039 0.24805,0.15039c0.035,-0.091 0.09361,-0.17848 0.09961,-0.27148c0.01,-0.166 -0.03977,-0.34 -0.00977,-0.5c0.025,-0.136 0.12636,-0.25581 0.19336,-0.38281c0.028,0.008 0.05598,0.01639 0.08398,0.02539c0.053,0.289 0.1073,0.57903 0.1543,0.83203c0.153,-0.035 0.25292,-0.05836 0.29492,-0.06836c0,0.233 -0.06642,0.4803 0.01758,0.6543c0.091,0.189 0.32425,0.31114 0.53125,0.49414c0,-0.255 0.05228,-0.48006 -0.01172,-0.66406c-0.104,-0.3 0.05181,-0.30841 0.25781,-0.31641c0.079,-0.003 0.15733,-0.01063 0.23633,-0.01562c0.207,-0.013 0.30902,0.06402 0.29102,0.29102c-0.014,0.18 0.01153,0.36197 0.01953,0.54297h0.09375c0.011,-0.123 0.02316,-0.24577 0.03516,-0.38477c0.147,0.008 0.28087,0.01544 0.42188,0.02344c0.005,0.069 -0.00038,0.1163 0.01563,0.1543c0.021,0.049 0.05984,0.08881 0.08984,0.13281c0.03,-0.045 0.06994,-0.08577 0.08594,-0.13477c0.016,-0.048 -0.00323,-0.10625 0.00977,-0.15625c0.009,-0.035 0.04422,-0.08189 0.07422,-0.08789c0.03,-0.006 0.07052,0.03073 0.10352,0.05273c0.069,0.046 0.13608,0.09362 0.20508,0.14063c0.031,-0.085 0.09994,-0.17495 0.08594,-0.25195c-0.035,-0.194 0.03858,-0.28964 0.26758,-0.30664c-0.953,-1.213 -1.87736,-2.38698 -2.81836,-3.58398c0.053,-0.026 0.0737,-0.04397 0.0957,-0.04297c0.92,-0.178 1.61261,-0.68361 2.09961,-1.47461c0.536,-0.871 0.61794,-1.82169 0.46094,-2.80469c-0.211,-1.324 -0.9887,-2.19516 -2.2207,-2.66016c-0.663,-0.25 -1.36017,-0.33903 -2.07617,-0.33203c-1.579,0.015 -3.15828,-0.00362 -4.73828,-0.01562zM16.24805,10.02734l-7.10938,0.05273c0,0 -0.06236,6.55553 -0.06836,9.51953c0,0.227 0.10005,0.25013 0.24805,0.20313c0.038,-0.149 0.07056,-0.27344 0.10156,-0.39844c0.086,0.152 0.10292,0.28763 0.16992,0.39063c0.068,0.104 0.1833,0.17572 0.2793,0.26172c-0.015,0.019 -0.02992,0.03859 -0.04492,0.05859c0.147,0.013 0.29575,0.02406 0.46875,0.03906v1.03516c0.064,-0.021 0.094,-0.03397 0.125,-0.04297c0.46,-0.135 0.67988,0.02814 0.67188,0.49414c-0.005,0.281 -0.01581,0.5618 -0.00781,0.8418c0.001,0.059 0.07233,0.11583 0.11133,0.17383c0.037,-0.029 0.09342,-0.04989 0.10742,-0.08789c0.138,-0.37 0.13741,-0.37231 0.56641,-0.32031c0.004,0.087 -0.00542,0.17777 0.01758,0.25977c0.015,0.055 0.07719,0.09849 0.11719,0.14648c0.031,-0.053 0.08884,-0.10616 0.08984,-0.16016c0.003,-0.183 -0.02353,-0.36678 -0.01953,-0.55078c0.003,-0.116 0.03059,-0.32808 0.05859,-0.33008c0.312,-0.021 0.20013,-0.28425 0.20313,-0.40625c0.024,-1.074 0.01758,-3.52148 0.01758,-3.52148l3.55078,0.00586c0,0 0.00586,-1.43753 0.00586,-2.01953v-0.65625h-0.42773c-0.963,0 -3.11328,-0.00781 -3.11328,-0.00781c0,0 -0.00977,-1.3702 -0.00977,-2.0332c0.13,0 0.23394,-0.001 0.33594,0c1.104,-0.001 3.53516,0.00391 3.53516,0.00391zM20.28906,12.48633c0.548,0.001 1.09042,0.02314 1.60742,0.24414c0.57,0.243 0.77511,0.6883 0.78711,1.2793c0.011,0.592 -0.22777,1.01148 -0.75977,1.27148c-0.527,0.258 -1.22116,0.25842 -1.78516,0.23242c-0.053,-0.003 -0.02148,-1.07681 -0.02148,-1.50781c0,-0.44 0,-1.50781 0,-1.50781c0,0 0.02688,-0.01172 0.17187,-0.01172zM20.7793,22.87891c-0.0485,-0.00962 -0.10837,0.01791 -0.17187,0.06641c-0.29,0.223 -0.56902,0.45791 -0.79102,0.75391c-0.448,0.597 -0.81206,1.26037 -0.91406,1.98438c-0.108,0.77 -0.03216,1.56561 -0.03516,2.34961c-0.001,0.142 0.06616,0.14327 0.16016,0.07227c0.111,-0.085 0.22312,-0.16977 0.32813,-0.25977c0.114,-0.097 0.14392,-0.07673 0.16992,0.07227c0.059,0.336 -0.08742,0.54984 -0.35742,0.71484c-0.126,0.077 -0.24883,0.16345 -0.29883,0.31445c-0.016,0.05 -0.02642,0.11039 0.01758,0.15039c0.058,0.053 0.09881,-0.01306 0.13281,-0.03906c0.119,-0.089 0.22675,-0.1922 0.34375,-0.2832c0.047,-0.036 0.10811,-0.12495 0.16211,-0.00195c0.073,0.169 -0.01897,0.53725 -0.16797,0.65625c-0.116,0.092 -0.23352,0.18058 -0.35352,0.26758c-0.085,0.061 -0.13363,0.13919 -0.14062,0.24219c-0.003,0.051 -0.02266,0.11444 0.02734,0.14844c0.054,0.037 0.09867,-0.00897 0.13867,-0.04297c0.113,-0.098 0.22489,-0.19987 0.33789,-0.29687c0.046,-0.04 0.09548,-0.09186 0.14648,-0.00586c0.068,0.115 -0.02281,0.5702 -0.13281,0.6582c-0.15,0.121 -0.30422,0.23533 -0.44922,0.36133c-0.093,0.08 -0.10325,0.20716 -0.03125,0.28516c0.064,0.069 0.13227,-0.03622 0.19727,-0.07422c0.14,-0.082 0.21672,-0.24792 0.38672,-0.29492c0.105,0.494 0.06311,0.57261 -0.33789,0.84961c-0.177,0.122 -0.34014,0.28331 -0.24414,0.57031c0.17,-0.131 0.32733,-0.252 0.48633,-0.375c0.107,0.169 0.21703,0.37158 0.08203,0.51758c-0.267,0.288 -0.52667,0.63625 -1.01367,0.53125c-0.084,-0.018 -0.17567,-0.002 -0.26367,0c-0.067,0.002 -0.13672,0.03066 -0.13672,0.09766c0,0.224 -0.09892,0.47816 0.08008,0.66016c0.227,0.231 0.48447,0.43453 0.73047,0.64453v0.97656c-0.001,0.069 0.00009,0.13708 -0.00391,0.20508c-0.001,0.016 0.00291,0.02506 0.00391,0.03906v0.32617c0,0.014 -0.001,0.02702 0,0.04102v0.00586v0.80469c-0.002,0.098 -0.002,0.19597 0,0.29297v0.33789l0.00391,-0.00195c0,0.031 0.001,0.06275 0,0.09375c-0.004,0.126 0.0722,0.16655 0.1582,0.06055c0.093,-0.116 0.16487,-0.21097 0.29688,-0.04297c0.042,0.053 0.11878,0.02495 0.17578,0.00195c0.298,-0.118 0.4395,-0.00883 0.4375,0.32617c-0.004,0.546 -0.00495,1.09072 -0.00195,1.63672c0.001,0.109 -0.02581,0.23892 0.11719,0.29492h0.14844c0.053,-0.059 0.04102,-0.13117 0.04102,-0.20117c0,-0.74 0.00505,-1.47875 -0.00195,-2.21875c-0.002,-0.252 0.01259,-0.48831 0.18359,-0.69531c0.05,-0.06 0.06392,-0.14495 0.16992,-0.12695c0.118,0.02 0.0908,0.11155 0.0918,0.18555c0.002,0.282 0,0.56466 0,0.84766v1.19727c0.303,-0.158 0.38789,-0.43366 0.58789,-0.59766c0.15,-0.123 0.2168,-0.25917 0.2168,-0.45117c-0.001,-0.987 0.00686,-1.97589 0.00586,-2.96289c0,-0.228 0.08186,-0.39392 0.25586,-0.54492c0.177,-0.154 0.35914,-0.30786 0.49414,-0.50586c0.135,-0.201 0.12778,-0.42686 0.05078,-0.63086c-0.069,-0.181 -0.2653,-0.0708 -0.4043,-0.0918c-0.052,-0.008 -0.10716,-0.00795 -0.16016,-0.00195c-0.186,0.021 -0.24319,-0.06119 -0.24219,-0.24219c0.008,-1.834 0.01472,-3.66795 0.01172,-5.50195c-0.001,-0.536 0.06145,-1.07447 -0.06055,-1.60547c-0.184,-0.795 -0.37469,-1.58877 -0.55469,-2.38477c-0.0235,-0.104 -0.06087,-0.15053 -0.10937,-0.16016zM28.60547,24.9082c-0.43637,0.00675 -0.87259,0.02153 -1.30859,0.01953c-0.923,-0.004 -2.97089,-0.01967 -3.08789,-0.01367v0.29297v9.90039c0,0.43 -0.00709,0.86006 0.00391,1.28906c0.003,0.13 0.05803,0.25752 0.08203,0.35352c-0.03,0.094 -0.05603,0.17677 -0.08203,0.25977c0.025,0.015 0.05017,0.02992 0.07617,0.04492c0.09,-0.072 0.18153,-0.14184 0.26953,-0.21484c0.044,-0.037 0.59111,-0.30855 0.66211,-0.31055c0.142,-0.004 0.28678,0.02195 0.42578,0.00195c0.308,-0.044 0.4838,0.04972 0.4668,0.38672c0,0.015 0.01434,0.03059 0.02734,0.05859c0.117,0 0.24537,0.02614 0.35938,-0.00586c0.225,-0.063 0.26034,0.06947 0.27734,0.23047c0.007,0.063 -0.01149,0.12894 -0.02148,0.21094h0.48242c0.09,0.119 0.15666,0.20597 0.22266,0.29297c0.032,-0.013 0.06466,-0.02606 0.09766,-0.03906v-4.79492c0.024,-0.01 0.04827,-0.01834 0.07227,-0.02734c0.023,0.034 0.04636,0.06656 0.06836,0.10156c0.362,0.563 0.72594,1.12741 1.08594,1.69141c0.342,0.535 0.67439,1.07451 1.02539,1.60352c0.052,0.078 0.1843,0.1033 0.2793,0.1543c0.017,-0.093 0.05288,-0.18634 0.04688,-0.27734c-0.02,-0.29 -0.00598,-0.56698 0.16602,-0.83398c0.04,0.033 0.08489,0.05217 0.08789,0.07617c0.048,0.345 0.09077,0.69111 0.13477,1.03711c0.02,0.01 0.03859,0.0193 0.05859,0.0293c0.053,-0.138 0.1052,-0.27411 0.1582,-0.41211c0.031,0.007 0.06275,0.01253 0.09375,0.01953v0.77344c0.141,-0.024 0.23827,-0.04164 0.32227,-0.05664c0.021,0.158 0.0425,0.30803 0.0625,0.45703c0.029,0.01 0.05889,0.0193 0.08789,0.0293c0.046,-0.081 0.12486,-0.16114 0.13086,-0.24414c0.017,-0.256 0.00586,-0.5142 0.00586,-0.7832c0.102,-0.017 0.18553,-0.03892 0.26953,-0.04492c0.514,-0.036 0.51686,-0.02953 0.50586,0.48047c-0.003,0.128 0.01058,0.25677 0.01758,0.38477c0.024,-0.001 0.05022,-0.00291 0.07422,-0.00391c0.011,-0.046 0.03525,-0.09367 0.03125,-0.13867c-0.027,-0.33 0.00716,-0.36177 0.28516,-0.25977c0.047,0.017 0.10116,0.01449 0.16016,0.02148c0.004,0.045 -0.00133,0.08528 0.01367,0.11328c0.032,0.062 0.07333,0.11678 0.11133,0.17578c0.03,-0.063 0.0628,-0.1245 0.0918,-0.1875c0.006,-0.015 -0.00505,-0.03873 0.00195,-0.05273c0.027,-0.055 0.05789,-0.10811 0.08789,-0.16211c0.031,0.042 0.0597,0.088 0.0957,0.125c0.05,0.051 0.10725,0.09667 0.15625,0.13867c0.182,-0.213 -0.02086,-0.56867 0.36914,-0.63867c-0.949,-1.239 -1.88689,-2.46217 -2.83789,-3.70117c0.667,-0.148 1.23853,-0.43645 1.64453,-0.81445c1.287,-1.197 1.52291,-3.58522 0.50391,-5.07422c-0.75,-1.096 -1.85224,-1.55167 -3.11523,-1.63867c-0.4335,-0.03 -0.87026,-0.03019 -1.30664,-0.02344zM34.14648,24.9082v0.31641c0,3.352 -0.00105,6.70464 0.00195,10.05664c0.001,0.463 0.02797,0.92667 0.04297,1.38867l0.00195,0.18164v0.66406h0.6582v-0.67383c0.047,-0.02 0.06975,-0.03806 0.09375,-0.03906c0.132,-0.005 0.26449,-0.00586 0.39648,-0.00586c0.365,0 0.36467,-0.00044 0.38867,0.35156c0.002,0.034 0.0193,0.06561 0.0293,0.09961c0.022,-0.014 0.04341,-0.02897 0.06641,-0.04297c0.011,-0.079 0.02216,-0.159 0.03516,-0.25c0.185,0.034 0.34283,0.02717 0.42383,-0.17383c0.018,-0.045 0.09739,-0.0888 0.15039,-0.0918c0.251,-0.01 0.50277,-0.00391 0.75977,-0.00391v0.83398h0.71484c0.006,-0.138 -0.16558,-0.3588 0.10742,-0.3418c0.289,0.018 0.62472,-0.14341 0.88672,0.18359c0.035,-0.201 -0.00413,-0.39736 0.04688,-0.56836c0.045,-0.152 0.19036,-0.27527 0.31836,-0.44727c0.008,0.143 0.01353,0.22817 0.01953,0.32617c0.044,-0.005 0.07933,-0.01672 0.11133,-0.01172c0.351,0.05 0.35116,0.03736 0.28516,-0.30664c-0.021,-0.113 0.00994,-0.30452 0.08594,-0.35352c0.16,-0.103 0.38083,-0.21269 0.54883,-0.17969c0.289,0.056 0.62063,0.16556 0.51563,0.60156c-0.001,0.005 0.02675,0.01659 0.09375,0.05859c0.093,-0.477 -0.01617,-0.93106 0.04883,-1.41406h-3.52344v-2.23633h3.2793v-2.79883h-3.27734v-2.33203h0.27344c0.971,0 3.16406,0.01367 3.16406,0.01367c0,0 -0.02806,-2.76869 -0.03906,-2.80469zM9,24.92578v10.11719c0.101,-0.008 0.18472,-0.01548 0.26172,-0.02148c0.021,-0.151 0.03864,-0.27539 0.05664,-0.40039c0.024,0.003 0.04731,0.00677 0.07031,0.00977c0.009,0.127 0.01539,0.25239 0.02539,0.40039c0.284,-0.059 0.22058,0.17627 0.26758,0.32227c0.167,0.01 0.32167,0.0183 0.51367,0.0293v1.03711c0.117,-0.017 0.19349,-0.03606 0.27149,-0.03906c0.484,-0.02 0.58669,0.1017 0.55469,0.5957c-0.008,0.117 0.06289,0.23822 0.08789,0.32422c-0.172,0.16 -0.05769,0.36084 -0.05469,0.58984c0.2,-0.398 0.54367,-0.38323 0.88867,-0.36523c0.033,-0.282 -0.07931,-0.6105 0.30469,-0.6875v-3.43945l0.00586,-0.05859c0,0 0.03083,-0.3403 0.04883,-0.5293h3.54492v-2.74609h-3.55469v-2.09961h3.89453v-3.03906zM27.58203,27.46094c0.779,0.021 1.56527,-0.05452 2.19727,0.52148c0.141,0.128 0.26578,0.32672 0.30078,0.51172c0.197,1.048 0.02416,1.74258 -1.21484,2.01758c-0.405,0.09 -0.8332,0.07242 -1.2832,0.10742z"></path></g></g></svg>