<svg xmlns="http://www.w3.org/2000/svg" xmlns:xlink="http://www.w3.org/1999/xlink" viewBox="0,0,256,256" width="100px" height="100px" fill-rule="nonzero"><g fill="none" fill-rule="nonzero" stroke="none" stroke-width="1" stroke-linecap="butt" stroke-linejoin="miter" stroke-miterlimit="10" stroke-dasharray="" stroke-dashoffset="0" font-family="none" font-weight="none" font-size="none" text-anchor="none" style="mix-blend-mode: normal"><g transform="scale(2.56,2.56)"><path d="M13,27c-1.105,0 -2,0.895 -2,2c0,1.105 0.895,2 2,2c1.105,0 2,-0.895 2,-2c0,-1.105 -0.895,-2 -2,-2z" fill="#aca3a4"></path><path d="M77,12c-0.552,0 -1,0.448 -1,1c0,0.552 0.448,1 1,1c0.552,0 1,-0.448 1,-1c0,-0.552 -0.448,-1 -1,-1z" fill="#b9b7b1"></path><path d="M50,13c-20.435,0 -37,16.565 -37,37c0,20.435 16.565,37 37,37c20.435,0 37,-16.565 37,-37c0,-20.435 -16.565,-37 -37,-37z" fill="#c0bebb"></path><path d="M83,11c-2.209,0 -4,1.791 -4,4c0,2.209 1.791,4 4,4c2.209,0 4,-1.791 4,-4c0,-2.209 -1.791,-4 -4,-4z" fill="#b9b7b1"></path><path d="M87,22c-1.105,0 -2,0.895 -2,2c0,1.105 0.895,2 2,2c1.105,0 2,-0.895 2,-2c0,-1.105 -0.895,-2 -2,-2z" fill="#aca3a4"></path><path d="M81,74c-1.105,0 -2,0.895 -2,2c0,1.105 0.895,2 2,2c1.105,0 2,-0.895 2,-2c0,-1.105 -0.895,-2 -2,-2zM15,59c-2.209,0 -4,1.791 -4,4c0,2.209 1.791,4 4,4c2.209,0 4,-1.791 4,-4c0,-2.209 -1.791,-4 -4,-4z" fill="#585756"></path><path d="M25,85c-1.105,0 -2,0.895 -2,2c0,1.105 0.895,2 2,2c1.105,0 2,-0.895 2,-2c0,-1.105 -0.895,-2 -2,-2z" fill="#aca3a4"></path><path d="M18.5,51c-1.381,0 -2.5,1.119 -2.5,2.5c0,1.381 1.119,2.5 2.5,2.5c1.381,0 2.5,-1.119 2.5,-2.5c0,-1.381 -1.119,-2.5 -2.5,-2.5z" fill="#1a1a19"></path><path d="M21,66c-0.552,0 -1,0.448 -1,1c0,0.552 0.448,1 1,1c0.552,0 1,-0.448 1,-1c0,-0.552 -0.448,-1 -1,-1z" fill="#b9b7b1"></path><path d="M80,33c-0.552,0 -1,0.448 -1,1c0,0.552 0.448,1 1,1c0.552,0 1,-0.448 1,-1c0,-0.552 -0.448,-1 -1,-1z" fill="#1a1a19"></path><path d="M35,72.3c-4,0 -7.3,-3.3 -7.3,-7.3v-30c0,-4 3.3,-7.3 7.3,-7.3h30c4,0 7.3,3.3 7.3,7.3v30c0,4 -3.3,7.3 -7.3,7.3z" fill="#fbfdf7"></path><path d="M65,28.4c3.6,0 6.6,3 6.6,6.6v30c0,3.6 -3,6.6 -6.6,6.6h-30c-3.6,0 -6.6,-3 -6.6,-6.6v-30c0,-3.6 3,-6.6 6.6,-6.6h30M65,27h-30c-4.4,0 -8,3.6 -8,8v30c0,4.4 3.6,8 8,8h30c4.4,0 8,-3.6 8,-8v-30c0,-4.4 -3.6,-8 -8,-8z" fill="#472b29"></path><path d="M68.5,47.4c-0.3,0 -0.5,-0.2 -0.5,-0.5v-3.9c0,-0.3 0.2,-0.5 0.5,-0.5c0.3,0 0.5,0.2 0.5,0.5v3.9c0,0.3 -0.2,0.5 -0.5,0.5zM68.5,40.5c-0.3,0 -0.5,-0.2 -0.5,-0.5v-2c0,-0.3 0.2,-0.5 0.5,-0.5c0.3,0 0.5,0.2 0.5,0.5v2c0,0.3 -0.2,0.5 -0.5,0.5z" fill="#472b29"></path><path d="M64,69h-28c-2.8,0 -5,-2.2 -5,-5v-28c0,-2.8 2.2,-5 5,-5h25.4c0.3,0 0.5,0.2 0.5,0.5c0,0.3 -0.2,0.5 -0.5,0.5h-25.4c-2.2,0 -4,1.8 -4,4v28c0,2.2 1.8,4 4,4h28c2.2,0 4,-1.8 4,-4v-14.4c0,-0.3 0.2,-0.5 0.5,-0.5c0.3,0 0.5,0.2 0.5,0.5v14.4c0,2.8 -2.2,5 -5,5z" fill="#472b29"></path><g fill="#1a1a19"><path d="M50.08,41.017c0.008,0 0.021,0.008 0.025,0.013c2.242,1.704 6.083,5.925 4.912,7.117c-1.321,1.153 -3.05,1.853 -4.937,1.853c-1.892,0 -3.617,-0.7 -4.938,-1.854c-1.171,-1.192 2.671,-5.412 4.913,-7.117c0.004,-0.008 0.016,-0.012 0.025,-0.012z"></path><path d="M53.984,36.096c-1.146,-0.679 -2.392,-1.096 -3.904,-1.096c-1.512,0 -2.758,0.417 -3.908,1.096c-0.012,0.008 -0.021,0.025 -0.012,0.038c0.004,0.012 0.021,0.017 0.037,0.012c1.454,-0.312 3.658,0.942 3.867,1.067c0.004,0.004 0.008,0.004 0.017,0.004c0.009,0 0.013,-0.004 0.017,-0.004c0.208,-0.125 2.417,-1.379 3.867,-1.067c0.017,0.004 0.029,0 0.037,-0.012c0.003,-0.013 -0.001,-0.03 -0.018,-0.038z"></path><path d="M44.83,37.15c-0.012,0.008 -0.025,0.017 -0.033,0.025c-1.371,1.362 -2.217,3.242 -2.217,5.325c0,1.708 0.571,3.283 1.533,4.546c0.008,0.013 0.025,0.021 0.042,0.013c0.013,-0.008 0.013,-0.025 0.008,-0.038c-0.575,-1.771 2.35,-6.058 3.858,-7.854c0.004,-0.004 0.008,-0.013 0.008,-0.021c0,-0.013 -0.004,-0.017 -0.013,-0.025c-2.286,-2.275 -3.061,-2.033 -3.186,-1.971z"></path><path d="M52.138,39.121c-0.008,0.004 -0.013,0.013 -0.013,0.025c0,0.008 0.004,0.017 0.008,0.021c1.508,1.796 4.433,6.083 3.862,7.85c-0.004,0.013 -0.004,0.029 0.008,0.037c0.012,0.008 0.029,0 0.042,-0.012c0.963,-1.263 1.533,-2.833 1.533,-4.546c0,-2.083 -0.85,-3.963 -2.217,-5.321c-0.008,-0.008 -0.021,-0.021 -0.033,-0.025c-0.127,-0.062 -0.902,-0.304 -3.19,1.971z"></path><g><path d="M47.86,52.423h-0.949l-2.147,5.499h0.87l0.532,-1.424h2.438l0.532,1.424h0.87zM46.436,55.764l0.949,-2.517l0.949,2.517z"></path><path d="M44.325,55.023v1.011v1.888v0h-0.791v-0.719c-0.205,0.277 -0.453,0.489 -0.748,0.629c-0.298,0.144 -0.647,0.216 -1.036,0.216c-0.396,0 -0.755,-0.068 -1.068,-0.198c-0.313,-0.133 -0.59,-0.334 -0.824,-0.597c-0.237,-0.263 -0.421,-0.568 -0.539,-0.913c-0.119,-0.345 -0.18,-0.737 -0.18,-1.162c0,-0.432 0.061,-0.827 0.18,-1.172c0.119,-0.345 0.302,-0.651 0.543,-0.91c0.237,-0.263 0.521,-0.46 0.842,-0.59c0.321,-0.13 0.687,-0.198 1.09,-0.198c0.672,0 1.233,0.176 1.676,0.525c0.435,0.352 0.701,0.831 0.788,1.413v0.011h-0.863v-0.007c-0.076,-0.367 -0.259,-0.658 -0.547,-0.874c-0.288,-0.212 -0.64,-0.32 -1.046,-0.32c-0.543,0 -0.982,0.194 -1.302,0.575c-0.327,0.378 -0.489,0.899 -0.489,1.55c0,0.651 0.165,1.172 0.489,1.55c0.331,0.381 0.773,0.575 1.32,0.575c0.475,0 0.877,-0.151 1.205,-0.446c0.324,-0.288 0.496,-0.662 0.514,-1.111h-1.618v-0.716h2.406v-0.01z"></path><path d="M57.771,53.178v1.593h2.733v0.701h-2.733v1.694h3.089v0.755h-3.927v-5.498h3.927v0.755z"></path><path d="M56.092,52.423v5.499h-0.809v-4.366c-0.104,0.306 -0.245,0.687 -0.417,1.133l-1.241,3.233h-0.705l-0.004,-0.004l-1.255,-3.226c-0.151,-0.399 -0.288,-0.773 -0.406,-1.115v4.344h-0.809v-5.499h1.154l1.126,2.924c0.227,0.593 0.414,1.104 0.554,1.525c0.165,-0.5 0.356,-1.039 0.561,-1.6l1.086,-2.845h1.165z"></path></g><g><path d="M44.525,59.843c-0.327,-0.309 -0.798,-0.467 -1.392,-0.467h-2.341v5.499h0.842v-2.025h1.5c0.593,0 1.064,-0.158 1.392,-0.467c0.327,-0.309 0.496,-0.737 0.496,-1.266c-0.004,-0.537 -0.17,-0.965 -0.497,-1.274zM43.895,61.853c-0.176,0.169 -0.439,0.255 -0.78,0.255h-1.485v-1.992h1.485c0.342,0 0.604,0.086 0.78,0.259c0.176,0.173 0.266,0.421 0.266,0.741c0.001,0.32 -0.089,0.568 -0.266,0.737z"></path><path d="M54.317,63.349c0,0.507 -0.191,0.913 -0.568,1.208c-0.378,0.292 -0.906,0.443 -1.572,0.443c-0.723,0 -1.291,-0.165 -1.694,-0.496c-0.403,-0.327 -0.611,-0.816 -0.615,-1.446v-0.007h0.842v0.007c0.007,0.406 0.137,0.716 0.381,0.917c0.245,0.201 0.619,0.306 1.104,0.306c0.403,0 0.716,-0.079 0.931,-0.234c0.216,-0.155 0.324,-0.381 0.324,-0.676c0,-0.237 -0.09,-0.424 -0.266,-0.55c-0.176,-0.129 -0.503,-0.248 -0.967,-0.349l-0.471,-0.101c-0.565,-0.111 -0.996,-0.298 -1.28,-0.557c-0.288,-0.255 -0.435,-0.615 -0.435,-1.068c0,-0.453 0.176,-0.82 0.525,-1.09c0.349,-0.27 0.827,-0.406 1.42,-0.406c0.716,0 1.266,0.155 1.625,0.464c0.363,0.309 0.55,0.737 0.561,1.277v0.007h-0.831v-0.008c-0.025,-0.349 -0.144,-0.611 -0.349,-0.777c-0.205,-0.166 -0.543,-0.248 -1,-0.248c-0.356,0 -0.633,0.068 -0.82,0.198c-0.187,0.129 -0.281,0.32 -0.281,0.565c0,0.248 0.083,0.439 0.252,0.565c0.169,0.137 0.482,0.255 0.935,0.352l0.478,0.101c0.626,0.133 1.079,0.327 1.356,0.579c0.279,0.251 0.415,0.596 0.415,1.024z"></path><path d="M59.208,63.349c0,0.507 -0.191,0.913 -0.568,1.208c-0.378,0.292 -0.906,0.443 -1.572,0.443c-0.723,0 -1.291,-0.165 -1.694,-0.496c-0.403,-0.327 -0.611,-0.816 -0.615,-1.446v-0.007h0.842v0.007c0.007,0.406 0.137,0.716 0.381,0.917c0.245,0.201 0.619,0.306 1.104,0.306c0.403,0 0.716,-0.079 0.931,-0.234c0.216,-0.155 0.324,-0.381 0.324,-0.676c0,-0.237 -0.09,-0.424 -0.266,-0.55c-0.176,-0.129 -0.503,-0.248 -0.967,-0.349l-0.471,-0.101c-0.565,-0.111 -0.996,-0.298 -1.28,-0.557c-0.288,-0.255 -0.435,-0.615 -0.435,-1.068c0,-0.453 0.176,-0.82 0.525,-1.09c0.349,-0.27 0.827,-0.406 1.42,-0.406c0.716,0 1.266,0.155 1.625,0.464c0.363,0.309 0.55,0.737 0.561,1.277v0.007h-0.831v-0.008c-0.025,-0.349 -0.144,-0.611 -0.349,-0.777c-0.205,-0.165 -0.543,-0.248 -1,-0.248c-0.356,0 -0.633,0.068 -0.82,0.198c-0.187,0.129 -0.281,0.32 -0.281,0.565c0,0.248 0.083,0.439 0.252,0.565c0.169,0.137 0.482,0.255 0.935,0.352l0.478,0.101c0.626,0.133 1.079,0.327 1.356,0.579c0.278,0.251 0.415,0.596 0.415,1.024z"></path><path d="M47.531,59.376h-0.949l-2.147,5.499h0.87l0.532,-1.424h2.438l0.529,1.424h0.87zM46.104,62.716l0.949,-2.517l0.949,2.517z"></path></g></g></g></g></svg>