<svg xmlns="http://www.w3.org/2000/svg" id="Layer_5" data-name="Layer 5" viewBox="0 0 283.46 85.7"><defs><style>.cls-1{fill:#231f20}</style></defs><path id="Path_1713" d="M48.68 156.2v-25.69L30.31 155 12 130.51v25.69H0V94.82l30.31 40.3 30.35-40.3v61.38Z" class="cls-1" data-name="Path 1713" transform="translate(0 -70.53)"/><path id="Path_1714" d="m117.06 156.21-3.93-8.79-.29-.62H91.23l-.25.66-4 8.75H74.3L101 96.93l1-2.3 1.1 2.37 26.75 59.25h-12.79ZM96.6 134.9h10.84l-5.41-12Z" class="cls-1" data-name="Path 1714" transform="translate(0 -70.53)"/><path id="Path_1715" d="M162.29 156.2a30.17 30.17 0 0 1-22-9.09c-10.73-10.06-12.2-28-3.28-40.13a26.93 26.93 0 0 1 3.28-3.69A30.06 30.06 0 0 1 162 94.15v11.91a19.09 19.09 0 0 0-13.22 32.61 18.53 18.53 0 0 0 13.52 5.61c7.74.23 14.86-4.79 18.07-12.75l.15-.4h-17.94v-11.91h30.24a31 31 0 0 1 .55 5.93 31.12 31.12 0 0 1-31.13 31Z" class="cls-1" data-name="Path 1715" transform="translate(0 -70.53)"/><path id="Path_1716" d="M261.68 156.21a30.26 30.26 0 0 1-22-9.09c-10.73-10.06-12.19-28-3.27-40.14a26.22 26.22 0 0 1 3.27-3.69 30.08 30.08 0 0 1 22-9.14 25.58 25.58 0 0 1 12.05 2.46 32.87 32.87 0 0 1 9.73 6.41l-8.46 8.43a19.1 19.1 0 0 0-26.85.26 18.6 18.6 0 0 0-5.62 13.49 18.31 18.31 0 0 0 5.62 13.48 19.14 19.14 0 0 0 26.85.22l8.45 8.43a31.7 31.7 0 0 1-9.73 6.45 30.53 30.53 0 0 1-12.05 2.46Z" class="cls-1" data-name="Path 1716" transform="translate(0 -70.53)"/><path d="M212.6 36.11a19.78 19.78 0 0 1-6.65-1.17v50.73h13.3V34.94a19.82 19.82 0 0 1-6.65 1.17Z" class="cls-1"/><circle id="Ellipse_2" cx="212.6" cy="15.29" r="15.29" data-name="Ellipse 2" style="fill:#915697"/></svg>